<svg xmlns="http://www.w3.org/2000/svg" width="1240" height="1240"><path d="M0 620.001v620.001l620.25-.251 620.25-.251.251-619.75.251-619.75H0v620.001m.497.499c0 341 .114 480.649.253 310.332s.139-449.317 0-620S.497 279.5.497 620.5m828.762-160.167L795.017 471.5l-.008 8.147-.009 8.148 6.75 1.137c18.247 3.073 23.914 4.323 25.75 5.678 1.94 1.43 2.008 2.802 2.28 45.394l.28 43.919-3.544-1.481c-11.264-4.706-43.507-6.891-59.516-4.033-24.836 4.433-51.549 20.794-67.911 41.591-19.105 24.285-28.001 53.415-25.172 82.427 1.997 20.476 8.136 37.329 19.44 53.37 9.688 13.747 23.461 24.338 39.356 30.262 8.512 3.173 9.272 3.276 24.287 3.31 14.359.032 16.082-.167 23.405-2.708 10.573-3.667 30.192-13.759 36.945-19.002 3-2.33 7.073-6.173 9.052-8.542l3.598-4.306V790h7.278c6.697 0 10.031-.949 41.75-11.892l34.472-11.892.285-10.108c.171-6.071-.103-10.108-.687-10.108-.534 0-4.712.897-9.285 1.993-10.461 2.508-18.552 2.577-21.416.182-5.157-4.311-4.877 3.976-5.166-152.925l-.27-146.25-6.73.083c-5.734.071-11.804 1.738-40.972 11.25m-719.694-7.083c-.289 1.788-1.879 21.25-3.534 43.25-1.655 22-3.244 41.688-3.532 43.75l-.523 3.75h19.75l1.227-7.75c4.715-29.76 11.98-44.582 23.692-48.333 2.662-.852 15.385-1.366 41.105-1.66l37.25-.425-.026 120.834c-.014 66.459-.442 125.115-.952 130.347-1.042 10.706-2.887 16.03-6.816 19.672-5.332 4.941-8.483 5.64-27.456 6.089l-17.75.42V784h155v-20.806l-17.75-.371c-20.092-.421-24.821-1.698-29.47-7.954-5.551-7.469-5.258-.117-5.552-139.619L273.956 486l32.272.031c36.886.035 45.389.788 51.022 4.516 7.803 5.163 12.87 17.141 17.141 40.515l2.272 12.438 9.669.286 9.668.286-.006-2.786c-.003-1.532-1.574-21.686-3.491-44.786s-3.49-43.029-3.494-44.286c-.009-2.245-.187-2.281-9.759-2-9.149.268-9.769.42-10.06 2.463-.171 1.198-.894 2.662-1.607 3.255-.915.758-35.969 1.001-118.69.822L131.5 456.5l-1.5-3.228-1.5-3.229-9.205-.021-9.204-.022-.526 3.25M512 577.984c-24.764 3.143-52.028 16.843-69.078 34.712-7.88 8.259-18.195 24.065-21.733 33.304-5.205 13.588-7.357 30.51-6.042 47.5 1.13 14.595 3.919 24.295 10.985 38.203 10.852 21.361 25.973 36.09 48.027 46.782 6.238 3.024 15.841 6.73 21.341 8.236 9.369 2.566 11.293 2.74 30.5 2.759 25.984.025 34.72-1.883 55.039-12.025 29.549-14.748 49.698-41.146 56.434-73.934 1.924-9.364 2.195-28.78.546-39.021-2.708-16.809-11.835-36.119-23.578-49.882-13.32-15.611-31.052-26.812-52.495-33.162-11.625-3.442-13.469-3.706-27.946-3.991-8.525-.168-18.425.065-22 .519m521 0c-24.764 3.143-52.028 16.843-69.078 34.712-7.88 8.259-18.195 24.065-21.733 33.304-5.205 13.588-7.357 30.51-6.042 47.5 1.13 14.595 3.919 24.295 10.985 38.203 10.852 21.361 25.973 36.09 48.027 46.782 6.238 3.024 15.841 6.73 21.341 8.236 9.369 2.566 11.293 2.74 30.5 2.759 25.984.025 34.72-1.883 55.039-12.025 29.549-14.748 49.698-41.146 56.434-73.934 1.924-9.364 2.195-28.78.546-39.021-2.708-16.809-11.835-36.119-23.578-49.882-13.32-15.611-31.052-26.812-52.495-33.162-11.625-3.442-13.469-3.706-27.946-3.991-8.525-.168-18.425.065-22 .519m-523.5 23.633c-19.78 5.172-34.206 20.279-40.489 42.399-4.4 15.491-3.725 39.214 1.651 57.984 2.793 9.752 12.774 30.14 18.357 37.5 13.548 17.856 28.387 26.5 45.494 26.5 24.918 0 42.643-16.177 50.627-46.204 3.193-12.01 3.185-36.204-.017-49.796-7.574-32.152-24.315-55.502-46.873-65.376-5.133-2.247-8.082-2.807-16.5-3.133-5.637-.219-11.15-.162-12.25.126m258.5.005c-23.084 4.497-39.034 21.763-45.615 49.378-2.587 10.855-2.344 33.279.496 45.704 6.21 27.176 20.204 46.976 39.119 55.353 4.688 2.076 7.051 2.436 16 2.439 14.932.006 24.542-3.514 44.737-16.384l7.237-4.612.013-52.343.013-52.342-5.49-6.067c-7.139-7.889-16.743-14.828-25.221-18.222-5.626-2.252-8.656-2.772-17.785-3.053-6.052-.186-12.129-.118-13.504.149m262.5-.005c-19.78 5.172-34.206 20.279-40.489 42.399-4.4 15.491-3.725 39.214 1.651 57.984 2.793 9.752 12.774 30.14 18.357 37.5 13.548 17.856 28.387 26.5 45.494 26.5 24.918 0 42.643-16.177 50.627-46.204 3.193-12.01 3.185-36.204-.017-49.796-7.574-32.152-24.315-55.502-46.873-65.376-5.133-2.247-8.082-2.807-16.5-3.133-5.637-.219-11.15-.162-12.25.126" fill="undefined" fill-rule="evenodd"/></svg>